<svg width="183" height="280" viewBox="0 0 183 280" fill="none" xmlns="http://www.w3.org/2000/svg">
<path d="M77.6097 53.4985L55.2471 102.743C53.963 105.57 50.6108 106.718 47.9091 105.254L42.0406 102.081L28.4248 94.7209C25.8869 93.3488 24.8743 90.1752 26.1411 87.5495L27.8905 83.9112C39.4252 89.0969 40.2739 73.3777 34.4441 70.2917L39.8474 59.0567C39.8517 59.0567 39.8517 59.0567 39.8517 59.0567L49.0121 40.0105C50.2832 37.3716 53.3899 36.2407 56.0182 37.4636L74.9898 46.2964C77.6743 47.5413 78.8463 50.7719 77.6097 53.4985Z" fill="#9B9FBA"/>
<path d="M50.4017 107.43C49.2993 107.43 48.207 107.154 47.2 106.608L27.717 96.0757C24.4396 94.3036 23.1527 90.2617 24.7872 86.8737L26.5358 83.2371C26.892 82.497 27.7591 82.1751 28.5 82.5078C30.981 83.6234 34.26 84.2725 35.7914 81.0294C37.2853 77.8665 36.216 72.9591 33.748 71.6526C33.0222 71.2682 32.73 70.3651 33.0896 69.6173L38.4928 58.3824C38.5087 58.3498 38.5253 58.3178 38.5432 58.2865L47.6574 39.3361C49.3018 35.9231 53.2499 34.4889 56.6455 36.0685L75.6172 44.9014C77.2788 45.6718 78.5452 47.0573 79.1817 48.8018C79.8195 50.5503 79.7476 52.4464 78.9788 54.1412C78.9787 54.1414 78.9787 54.1416 78.9784 54.1418L56.6157 103.386C55.8188 105.141 54.3882 106.447 52.5881 107.063C51.8703 107.308 51.1338 107.43 50.4017 107.43ZM28.635 85.8545L27.4956 88.2236C26.5819 90.118 27.3011 92.3759 29.1324 93.366L48.6169 103.9C49.5538 104.407 50.6223 104.498 51.6271 104.154C52.6329 103.81 53.4322 103.08 53.878 102.099L76.2407 52.855C76.6703 51.9071 76.7105 50.8469 76.354 49.8694C75.9988 48.8959 75.2923 48.1228 74.3642 47.6924L55.3908 38.8587C53.492 37.9755 51.2853 38.7781 50.3664 40.6855L41.2063 59.731C41.1907 59.7636 41.1738 59.7956 41.1559 59.8269L36.3705 69.7774C39.6307 72.6117 40.2971 78.575 38.5101 82.3583C37.8239 83.8108 35.1675 88.1121 28.635 85.8545Z" fill="#010270"/>
<path d="M16.4047 114.644C16.4047 114.644 16.2611 123.946 20.9289 128.914C25.5967 133.881 34.2502 122.411 34.2502 122.411L30.9109 113.206" fill="#9B9FBA"/>
<path d="M63.8826 47.4545L58.3442 45.0893C57.0149 44.5216 55.4812 45.1106 54.8524 46.4305L34.7719 88.572C34.1289 89.9215 34.6106 91.547 35.8795 92.3101L49.1654 100.299C50.2229 100.935 51.5651 100.791 52.4682 99.9436L52.8833 99.5542" fill="#3FB1EA"/>
<path d="M23.7342 131.695C22.2422 131.695 20.9009 131.104 19.8388 129.974C14.8012 124.612 14.8905 115.025 14.8968 114.62C14.9098 113.781 15.5824 113.11 16.4041 113.11C16.4123 113.11 16.4204 113.11 16.4284 113.11C17.2608 113.123 17.9252 113.821 17.9126 114.667C17.9113 114.792 17.8519 123.419 22.0191 127.854C22.5506 128.419 23.1447 128.668 23.8861 128.623C26.7914 128.464 30.7259 124.35 32.5403 122.129L29.4963 113.737C29.2079 112.943 29.6075 112.06 30.3888 111.767C31.1706 111.474 32.0376 111.88 32.3258 112.675L35.665 121.88C35.8444 122.375 35.7618 122.928 35.4467 123.346C34.825 124.169 29.2257 131.402 24.0508 131.687C23.9446 131.693 23.8391 131.695 23.7342 131.695Z" fill="#010270"/>
<path d="M42.6869 110.431L41.2521 113.206L11.5214 116.603C11.5214 116.603 8.64744 111.159 11.5214 100.038C14.3954 88.917 21.143 77.8444 27.8905 67.9245C34.5174 58.1843 39.6621 59.0217 39.8474 59.0567L34.4441 70.2916C40.274 73.3776 39.4251 89.0968 27.8905 83.9111L26.1411 87.5494C24.8743 90.1751 25.887 93.3488 28.4248 94.7208L42.0406 102.081L42.6869 110.431Z" fill="#299ADF"/>
<g opacity="0.6">
<path d="M39.8474 59.0567L38.6582 61.5247C36.4909 62.2655 33.1257 64.3477 29.2564 70.033C22.5088 79.9529 15.7613 91.0256 12.8873 102.147C11.0603 109.213 11.5559 113.986 12.1591 116.529L11.5214 116.603C11.5214 116.603 8.64744 111.159 11.5214 100.038C14.3954 88.9171 21.143 77.8444 27.8905 67.9246C34.5174 58.1844 39.6622 59.0217 39.8474 59.0567Z" fill="white"/>
</g>
<path d="M11.521 118.137C10.9704 118.137 10.4576 117.831 10.1927 117.329C10.0639 117.085 7.07237 111.22 10.063 99.6478C13.0783 87.9798 20.1401 76.6225 26.6505 67.0514C33.7091 56.677 39.4867 57.4302 40.1224 57.548C40.5859 57.6355 40.9827 57.9385 41.1947 58.3669C41.4066 58.7954 41.4095 59.3 41.2021 59.7309L36.3705 69.7773C39.6308 72.6116 40.2972 78.5749 38.5101 82.3582C37.824 83.8107 35.1676 88.112 28.6351 85.8543L27.4957 88.2234C26.582 90.1178 27.3012 92.3758 29.1326 93.3658L42.7484 100.726C43.2036 100.972 43.5038 101.437 43.5443 101.96L44.1905 110.311C44.2129 110.6 44.1543 110.889 44.0216 111.145L42.5869 113.92C42.3542 114.37 41.9174 114.674 41.4206 114.73L11.6899 118.128C11.6332 118.134 11.5769 118.137 11.521 118.137ZM37.1821 61.1078C35.3011 61.9213 32.449 63.9206 29.1305 68.7978C22.7696 78.1491 15.8764 89.22 12.9799 100.428C10.9704 108.204 11.9155 113.034 12.5062 114.947L40.2896 111.772L41.1493 110.11L40.6023 103.04L27.7171 96.0757C24.4397 94.3036 23.1528 90.2617 24.7873 86.8737L26.5359 83.2371C26.8921 82.497 27.7592 82.1751 28.5001 82.5079C30.9811 83.6235 34.2601 84.2725 35.7915 81.0294C37.2854 77.8665 36.2161 72.9591 33.7481 71.6526C33.0223 71.2683 32.7301 70.3651 33.0896 69.6173L37.1821 61.1078Z" fill="#010270"/>
<path d="M124.412 212.128C124.412 212.128 124.287 212.593 124.063 213.378C123.132 216.63 120.469 225.367 117.806 228.786C115.212 232.113 92.1733 235.62 73.2836 231.81H73.2793C69.2204 230.991 65.351 229.833 61.917 228.264C60.0728 227.422 58.6251 225.875 57.8452 223.981C56.4664 220.624 54.5059 214.557 54.3207 206.868C54.0362 194.884 124.412 212.128 124.412 212.128Z" fill="#9B9FBA"/>
<path d="M59.5644 128.439C59.5644 128.439 48.0384 142.575 47.069 142.519C46.0995 142.461 11.5214 146.082 20.893 129.535C25.0812 122.14 29.7519 117.348 33.6341 114.315C38.4383 110.554 42.0405 109.48 42.0405 109.48L56.8325 115.104L57.0911 116.375L59.5644 128.439Z" fill="white"/>
<path d="M57.0912 116.375L52.8815 119.808L34.2503 114.81C34.2503 114.81 34.009 114.626 33.6342 114.315C38.4384 110.554 42.0406 109.48 42.0406 109.48L56.8326 115.104L57.0912 116.375Z" fill="#28328E"/>
<path d="M39.0959 144.345C28.0621 144.345 21.2421 142.315 18.7829 138.287C17.2038 135.701 17.474 132.499 19.5863 128.769C29.1501 111.881 41.1122 108.158 41.6168 108.008C41.9298 107.915 42.2636 107.927 42.5683 108.043L57.3606 113.667C58.1407 113.964 58.537 114.847 58.2453 115.641C57.9537 116.435 57.0842 116.838 56.3048 116.541L42.0222 111.111C39.8511 111.945 30.1114 116.331 22.1998 130.3C20.6854 132.975 20.3978 135.117 21.345 136.668C22.399 138.395 26.9242 142.276 46.1385 141.032C46.3559 141.017 46.5211 141.007 46.6509 140.999C48.0638 139.816 53.5969 133.355 58.4037 127.459C58.9356 126.807 59.8862 126.716 60.5273 127.258C61.1684 127.799 61.2568 128.766 60.7252 129.418C60.6964 129.454 57.799 133.006 54.8202 136.504C48.4289 144.011 47.8634 144.1 47.0214 144.052C46.9055 144.055 46.6689 144.072 46.3301 144.094C43.7465 144.261 41.3342 144.345 39.0959 144.345ZM46.9836 144.05C46.9849 144.05 46.9863 144.05 46.9878 144.05C46.9863 144.05 46.985 144.05 46.9836 144.05Z" fill="#010270"/>
<g opacity="0.2">
<path d="M65.0582 213.378C65.0582 213.378 63.1551 222.063 68.9719 226.154C74.7888 230.245 78.0204 225.35 77.1586 221.113C76.2969 216.876 75.6506 214.611 75.6506 214.611" fill="white"/>
</g>
<path d="M91.2486 235C82.8946 235 70.9384 234.072 61.2976 229.664C59.1138 228.666 57.3938 226.857 56.4547 224.572C54.8964 220.781 53 214.638 52.8145 206.904C52.7821 205.547 53.3475 204.351 54.4501 203.445C55.9461 202.216 60.4978 198.475 93.4678 204.149C109.483 206.905 124.614 210.599 124.765 210.635C125.161 210.733 125.502 210.988 125.709 211.345C125.917 211.701 125.974 212.128 125.868 212.528C125.73 213.047 122.443 225.304 118.987 229.738C116.668 232.713 105.454 234.498 96.0161 234.899C94.6266 234.958 93.0175 235 91.2486 235ZM65.7167 204.149C59.7383 204.149 57.3149 205.036 56.3452 205.832C55.8804 206.214 55.8228 206.537 55.8299 206.83C56.0037 214.086 57.779 219.84 59.2374 223.389C59.8802 224.953 61.0508 226.187 62.534 226.865C82.2435 235.877 114.312 230.795 116.623 227.831C118.856 224.967 121.343 217.366 122.531 213.253C118.305 212.254 105.917 209.403 92.9504 207.172C79.7567 204.902 71.2268 204.149 65.7167 204.149Z" fill="#010270"/>
<path d="M143.155 169.696C139.682 184.052 132.555 201.503 129.229 209.283C128.126 211.861 125.773 213.649 123.037 214.018C92.9231 218.077 67.8072 213.921 55.2945 209.603C50.9641 208.113 48.1419 206.601 47.1422 205.404C43.1179 200.582 44.4924 185.534 44.4924 185.534C44.4924 185.534 48.4348 170.191 48.646 150.786C48.8614 131.38 54.967 112.115 54.967 112.115C54.967 112.115 54.967 112.115 54.9713 112.11L66.2431 107.946C66.2431 107.946 96.241 112.755 119.625 118.887C132.241 122.197 142.935 125.892 145.956 129.425C148.408 132.296 149.614 135.246 149.972 138.442C150.876 146.472 146.46 156.037 143.155 169.696Z" fill="white"/>
<path d="M149.972 138.442L149.429 138.692C133.163 142.518 71.6937 129.425 54.967 112.115C54.967 112.115 54.967 112.115 54.9713 112.11L66.2431 107.946C66.2431 107.946 137.338 119.343 145.956 129.425C148.407 132.296 149.614 135.246 149.972 138.442Z" fill="#28328E"/>
<g opacity="0.3">
<path d="M143.155 169.696C139.682 184.052 132.555 201.503 129.229 209.283C128.126 211.861 125.773 213.649 123.037 214.018C92.9232 218.077 67.8072 213.921 55.2945 209.603C108.323 196.186 114.575 136.097 114.575 136.097C122.4 128.741 105.156 123.288 105.156 123.288L119.625 118.887C132.241 122.197 142.935 125.892 145.956 129.425C148.407 132.296 149.614 135.246 149.972 138.442C150.876 146.472 146.46 156.037 143.155 169.696Z" fill="#010270"/>
</g>
<g opacity="0.2">
<path d="M80.1899 116.006L74.9339 123.653C74.9339 123.653 93.6039 131.178 93.6039 130.74C93.6039 130.302 93.6039 120.151 93.6039 120.151" fill="white"/>
</g>
<g opacity="0.6">
<path d="M148.472 133.225C148.27 132.954 148.05 132.686 147.821 132.415C139.204 122.333 68.1088 110.935 68.1088 110.935L56.8369 115.1C56.8326 115.104 56.8326 115.104 56.8326 115.104C56.8326 115.104 50.7271 134.37 50.5116 153.775C50.3005 173.181 46.3579 188.523 46.3579 188.523C46.3579 188.523 45.3324 199.732 47.642 205.899C47.4437 205.733 47.2756 205.566 47.1421 205.404C43.1177 200.582 44.4922 185.534 44.4922 185.534C44.4922 185.534 48.4347 170.192 48.6458 150.786C48.8613 131.38 54.9669 112.115 54.9669 112.115C54.9669 112.115 54.9669 112.115 54.9712 112.11L66.243 107.946C66.243 107.946 137.338 119.343 145.956 129.425C147.02 130.674 147.852 131.932 148.472 133.225Z" fill="white"/>
</g>
<path d="M98.462 217.215C87.2412 217.215 77.9267 216.165 71.0997 215.019C58.6362 212.926 48.5457 209.462 45.9908 206.398C41.6832 201.233 42.8441 186.998 42.9907 185.392C42.9981 185.309 43.0124 185.227 43.0331 185.146C43.072 184.994 46.93 169.743 47.1386 150.769C47.3522 131.356 53.4694 111.84 53.5311 111.645C53.674 111.194 54.0135 110.836 54.4511 110.674L65.7277 106.504C65.968 106.415 66.2256 106.39 66.4777 106.43C66.6558 106.459 84.5084 109.333 103.184 113.405C128.884 119.007 143.248 123.918 147.094 128.418C154.262 136.805 151.611 145.726 147.941 158.073C146.881 161.638 145.68 165.68 144.619 170.064C141.067 184.747 133.64 202.811 130.611 209.896C129.311 212.938 126.484 215.1 123.235 215.538C114.248 216.749 105.932 217.215 98.462 217.215ZM45.9834 185.794C45.6242 189.9 45.3607 200.9 48.2906 204.413C49.767 206.183 57.9719 209.704 71.5909 211.991C82.761 213.867 100.719 215.477 122.839 212.496C125.046 212.199 126.964 210.733 127.845 208.672C130.843 201.658 138.193 183.786 141.691 169.331C142.77 164.868 143.984 160.786 145.054 157.185C148.57 145.354 150.893 137.539 144.818 130.432C138.088 122.558 86.3071 112.735 66.3921 109.523L56.1864 113.297C55.1071 116.935 50.3401 133.93 50.1546 150.803C49.9519 169.241 46.3626 184.258 45.9834 185.794Z" fill="#010270"/>
<path d="M131.306 189.15C131.306 189.15 124.843 199.451 112.778 201.095C100.713 202.739 105.238 186.739 105.238 186.739C105.238 186.739 109.008 182.027 111.701 178.191C114.394 174.356 112.132 171.547 119.241 173.883C126.351 176.219 133.891 183.232 131.306 189.15Z" fill="#9B9FBA"/>
<path d="M111.115 202.748C108.522 202.748 106.491 201.9 105.061 200.215C101.203 195.666 103.681 186.695 103.788 186.315C103.845 186.116 103.94 185.931 104.068 185.771C104.106 185.724 107.84 181.05 110.474 177.3C111.136 176.356 111.45 175.469 111.727 174.687C112.135 173.533 112.598 172.226 114.083 171.705C115.279 171.285 116.855 171.487 119.705 172.423C125.338 174.274 130.598 178.586 132.496 182.909C133.541 185.288 133.606 187.662 132.684 189.773C132.653 189.843 132.618 189.911 132.577 189.976C132.298 190.421 125.592 200.897 112.978 202.616C112.328 202.704 111.707 202.748 111.115 202.748ZM106.609 187.454C106.001 189.822 105.124 195.597 107.347 198.213C108.41 199.464 110.12 199.908 112.578 199.574C123.179 198.13 129.304 189.416 129.975 188.415C130.497 187.132 130.419 185.701 129.742 184.16C128.192 180.629 123.581 176.921 118.778 175.343C115.671 174.322 115.101 174.582 115.046 174.614C114.923 174.714 114.707 175.323 114.565 175.726C114.256 176.599 113.833 177.795 112.928 179.083C110.595 182.406 107.431 186.418 106.609 187.454Z" fill="#010270"/>
<path d="M173.963 64.5492L165.462 117.589C165.462 117.589 162.329 133.151 136.476 130.082C113.903 127.404 86.5633 119.374 72.103 113C72.0514 112.978 72.0169 112.965 71.9953 112.956C71.9867 112.956 71.9824 112.952 71.9738 112.947C69.9271 112.044 68.1433 111.172 66.674 110.357C54.8248 103.782 42.7601 94.5674 51.8087 73.3118C60.8572 52.0563 72.06 29.9196 80.893 22.2485C89.7261 14.5774 106.1 14.3582 106.1 14.3582C106.1 14.3582 111.055 8.00217 122.4 9.46187C132.073 10.7111 151.234 19.3817 159.442 24.7252C159.442 24.7252 159.447 24.7252 159.451 24.7296C160.869 25.6544 161.963 26.4786 162.618 27.1448C165.6 30.1782 166.272 33.6763 166.388 35.6532C166.448 36.6264 166.371 37.2269 166.371 37.2269C166.371 37.2269 167.814 39.1162 169.447 42.5397C171.692 47.2608 174.295 54.9012 173.963 64.5492Z" fill="white"/>
<g opacity="0.6">
<path d="M165.431 31.4276C165.031 30.8533 164.565 30.2834 164.018 29.7267C159.563 25.1986 135.149 13.5079 123.8 12.0481C112.455 10.5884 107.5 16.9445 107.5 16.9445L100.175 25.7554C100.175 25.7554 94.6035 33.3125 104.38 40.2165C104.04 40.0806 93.9701 35.89 96.4046 28.5827C97.792 24.4184 101.11 20.1445 103.755 17.1944C98.3909 17.7423 88.4893 19.4563 82.2933 24.8348C73.4603 32.5059 62.2575 54.6425 53.2089 75.8981C49.1544 85.4191 49.3396 92.5247 51.843 98.0567C48.1115 92.1872 47.0947 84.3846 51.8086 73.3118C60.857 52.0563 72.0599 29.9196 80.8929 22.2485C89.726 14.5774 106.099 14.3582 106.099 14.3582C106.099 14.3582 111.055 8.00217 122.4 9.46187C133.749 10.9259 158.163 22.6123 162.618 27.1449C163.988 28.5389 164.871 30.0293 165.431 31.4276Z" fill="white"/>
</g>
<path d="M57.4852 60.5245C49.0589 77.41 58.9181 87.1242 58.9181 87.1242C72.2754 104.001 118.81 116.932 133.46 114.521C148.11 112.11 146.818 108.823 154.44 79.2414C162.062 49.6603 142.875 44.077 142.875 44.077C125.074 50.8644 93.3885 42.6318 95.6724 29.3354C79.1053 23.491 73.6939 30.7647 73.6939 30.7647L57.4852 60.5245Z" fill="#28328E"/>
<g opacity="0.3">
<path d="M154.44 79.2427C146.818 108.823 148.11 112.11 133.46 114.521C118.81 116.932 72.2755 104.001 58.9182 87.1242C58.9182 87.1242 58.2934 86.5105 57.4962 85.3182C72.0471 101.603 116.721 113.864 131.017 111.51C145.667 109.099 144.374 105.811 151.997 76.2312C155.569 62.3663 153.255 53.7746 149.782 48.5583C154.371 53.2136 158.809 62.283 154.44 79.2427Z" fill="#010270"/>
</g>
<path d="M142.977 132.023C140.869 132.023 138.644 131.884 136.302 131.606C111.195 128.626 78.4532 118.641 65.9517 111.704C60.1534 108.486 53.7366 104.356 50.107 98.122C46.0248 91.1101 46.1286 82.7953 50.4248 72.7031C56.9851 57.2913 69.54 30.091 79.9137 21.0815C88.1354 13.9414 102.172 12.973 105.418 12.8435C107.016 11.1967 112.445 6.63552 122.59 7.94103C134.314 9.45099 159.033 21.3282 163.683 26.0585C167.729 30.1746 167.973 35.0314 167.914 36.7689C169.533 39.0958 175.995 49.3814 175.47 64.6029C175.468 64.6676 175.462 64.7322 175.451 64.7961L166.95 117.836C166.947 117.857 166.943 117.877 166.939 117.897C166.903 118.077 166.002 122.346 161.646 126.151C157.174 130.057 150.912 132.023 142.977 132.023ZM119.069 10.7776C111.011 10.7776 107.44 15.1125 107.275 15.3191C106.994 15.6713 106.566 15.8862 106.12 15.8925C105.962 15.8948 90.1797 16.2008 81.8723 23.4154C71.961 32.0231 59.6493 58.7545 53.1925 73.9225C44.5484 94.2291 55.9916 102.681 67.3961 109.01C79.6552 115.813 111.877 125.618 136.651 128.559C160.39 131.374 163.781 118.185 163.98 117.301L172.459 64.3989C172.974 48.5373 165.261 38.2702 165.183 38.1681C164.936 37.8458 164.826 37.4367 164.877 37.0313C164.899 36.8405 165.393 32.1374 161.55 28.2285C157.249 23.8526 133.219 12.4028 122.212 10.9853C121.097 10.8418 120.049 10.7776 119.069 10.7776Z" fill="#010270"/>
<path d="M127.86 48.1032C122.013 48.1034 116.452 47.4606 111.657 46.2017C103.138 43.9652 97.3516 39.8677 94.9231 34.3525C93.4216 30.9423 94.0139 26.8173 96.4317 23.8434L104.937 13.3805C105.468 12.7278 106.419 12.6363 107.061 13.1761C107.702 13.7161 107.793 14.6831 107.262 15.3361L98.7559 25.799C97.0638 27.8803 96.6398 30.7452 97.6759 33.0983C102.236 43.4546 120.5 46.3148 136.579 44.554C139.726 44.2096 142.705 42.8041 144.967 40.597L153.673 32.1001C153.707 32.0667 153.743 32.0351 153.78 32.005C153.842 31.9549 160.096 27.0853 167.535 36.2485C168.066 36.9016 167.975 37.8687 167.333 38.4082C166.691 38.9481 165.74 38.8557 165.21 38.2024C159.981 31.7619 156.177 34.0479 155.686 34.3872L147.055 42.811C144.314 45.4855 140.708 47.1881 136.902 47.605C133.857 47.9382 130.822 48.1032 127.86 48.1032Z" fill="#010270"/>
<path d="M73.6937 32.0717C73.4179 32.0717 73.1407 31.9828 72.9068 31.7986C72.3468 31.3573 72.2355 30.5457 72.663 29.971C72.9073 29.6429 78.8386 22.0057 96.0958 28.0929C96.7703 28.3308 97.1275 29.08 96.8936 29.7661C96.6598 30.4524 95.9239 30.8159 95.2488 30.5777C79.9257 25.1726 74.7663 31.505 74.716 31.5696C74.4597 31.8985 74.0783 32.0717 73.6937 32.0717Z" fill="#010270"/>
<g opacity="0.2">
<path d="M65.9878 99.6935C63.7126 98.7749 62.2923 96.4456 62.3203 93.9554C62.3519 91.1517 63.1107 87.2223 66.7817 85.4439C72.814 82.5216 75.9379 86.7589 74.6452 91.2703C73.5834 94.9761 70.7773 101.627 65.9878 99.6935Z" fill="white"/>
</g>
<path d="M129.319 116.124C121.038 116.124 108.171 113.591 95.3023 109.305C77.6627 103.43 64.0572 95.6691 57.955 88.0042C57.5298 87.5637 55.1919 84.9997 53.8092 80.5531C52.4486 76.1778 51.782 69.048 56.3325 59.9293C56.6555 59.2816 57.4336 59.0234 58.0702 59.3521C58.7069 59.6808 58.9609 60.4724 58.6376 61.1199C50.7749 76.8764 59.4473 85.8103 59.8202 86.1829C59.8563 86.2186 59.8931 86.2598 59.9248 86.2996C65.7 93.5964 78.8878 101.071 96.1066 106.806C110.932 111.744 126.207 114.381 133.254 113.223C145.155 111.264 145.671 109.176 150.606 89.1978C151.351 86.1837 152.195 82.7675 153.189 78.9079C156.181 67.2973 155.279 57.8153 150.58 51.487C147.052 46.7347 142.561 45.3537 142.516 45.3403C141.832 45.1366 141.437 44.4082 141.635 43.7121C141.833 43.0158 142.546 42.6138 143.231 42.8127C143.443 42.8747 148.484 44.3897 152.541 49.7655C156.224 54.646 159.761 63.7793 155.69 79.5748C154.699 83.4214 153.857 86.8307 153.114 89.8388C148.144 109.959 147.248 113.584 133.667 115.819C132.422 116.024 130.96 116.124 129.319 116.124Z" fill="#010270"/>
<path d="M75.3992 40.3853C75.3992 40.3853 80.0709 31.8923 84.683 36.7872C89.2951 41.6821 95.3993 53.2983 114.502 55.9284C133.604 58.5585 137.769 53.1522 143.514 58.5585C149.259 63.9648 146.961 75.2158 144.519 84.4212C142.078 93.6265 140.642 105.17 129.008 105.316C117.374 105.462 74.4297 96.0765 63.0833 78.1211C63.0833 78.1211 58.6725 73.5223 65.4588 58.6184C65.4588 58.6184 70.6595 47.618 75.3992 40.3853Z" fill="#010270"/>
<g opacity="0.3">
<path d="M144.521 84.4197C142.078 93.625 140.643 105.171 129.009 105.316C117.539 105.46 75.6191 96.334 63.5803 78.8658C78.368 94.0459 115.424 101.941 126.101 101.809C137.735 101.664 139.169 90.1183 141.612 80.9129C143.689 73.0752 145.663 63.7602 142.66 57.825C142.94 58.0441 143.224 58.2853 143.513 58.557C149.261 63.9662 146.96 75.2143 144.521 84.4197Z" fill="#010270"/>
</g>
<g opacity="0.3">
<path d="M173.963 64.5492L165.462 117.59C165.462 117.59 162.329 133.151 136.476 130.082C113.903 127.404 86.5632 119.374 72.103 113C75.102 114.223 128.815 135.777 147.106 117.883C165.918 99.4725 165.057 69.0773 163.333 58.8506C161.61 48.6239 162.618 38.5418 169.365 42.487C169.391 42.5046 169.417 42.5177 169.447 42.5396C171.692 47.2608 174.295 54.9012 173.963 64.5492Z" fill="#010270"/>
</g>
<path d="M181.344 94.9579C180.305 105.753 171.89 113.138 162.975 112.001C154.061 110.863 148.291 101.777 149.618 91.0146C150.945 80.2527 158.686 72.3285 167.606 73.412C177.194 74.5765 182.473 83.2339 181.344 94.9579Z" fill="#299ADF"/>
<g opacity="0.3">
<path d="M181.344 94.9575C180.305 105.754 171.89 113.14 162.976 112.001C157.684 111.325 153.5 107.849 151.251 102.887C153.302 104.597 155.775 105.728 158.559 106.083C167.474 107.223 175.889 99.8364 176.927 89.0398C177.384 84.2794 176.79 80.023 175.277 76.5731C179.87 80.2947 182.119 86.9007 181.344 94.9575Z" fill="#010270"/>
</g>
<g opacity="0.48">
<path d="M151.916 85.517C154.912 80.9763 160.031 82.3754 159.385 88.0009C159.385 88.0009 158.164 91.946 158.236 95.9642C156.943 100.713 150.055 100.122 149.439 94.7232" fill="white"/>
</g>
<path d="M164.788 113.65C164.122 113.65 163.455 113.608 162.788 113.523C158.029 112.915 153.91 110.226 151.19 105.95C148.526 101.761 147.436 96.3884 148.122 90.8235C149.575 79.0433 158.209 70.7278 167.785 71.8886C178.01 73.1304 184.062 82.4614 182.845 95.1073C182.277 101.009 179.532 106.362 175.312 109.792C172.21 112.314 168.534 113.65 164.788 113.65ZM166.005 74.849C158.68 74.849 152.283 81.7306 151.115 91.2056C150.517 96.0547 151.443 100.699 153.723 104.283C155.95 107.786 159.303 109.986 163.163 110.478C166.77 110.939 170.417 109.844 173.429 107.395C177.017 104.478 179.354 99.8909 179.844 94.8083C180.905 83.7808 176.031 75.9803 167.428 74.9353C166.95 74.8775 166.476 74.849 166.005 74.849Z" fill="#010270"/>
<path d="M169.293 110.633C168.871 110.633 168.45 110.607 168.03 110.553C160.999 109.656 156.575 101.848 157.741 92.391C158.916 82.8626 165.214 76.0471 172.084 76.8756C179.536 77.7739 183.682 85.0661 182.647 95.453C182.133 100.617 179.862 105.179 176.417 107.97C174.269 109.71 171.779 110.633 169.293 110.633ZM170.943 79.4369C165.833 79.4369 161.251 85.0592 160.306 92.7183C159.324 100.687 162.783 107.233 168.352 107.944C170.582 108.228 172.815 107.526 174.807 105.912C177.71 103.56 179.63 99.6509 180.075 95.1878C180.954 86.3635 177.698 80.2009 171.78 79.4874C171.5 79.4536 171.22 79.4369 170.943 79.4369Z" fill="#010270"/>
<g opacity="0.2">
<path d="M85.5249 38.9058C85.5249 38.9058 89.3669 34.3032 94.1066 37.3716C96.7796 39.1021 100.606 41.5359 93.4962 53.1522C88.3606 61.5433 84.4053 70.9065 82.3207 76.9459C81.0767 80.5498 77.2712 82.5823 73.6689 81.5057C70.2082 80.4715 67.09 78.0424 68.6128 72.449C71.6291 61.3712 85.5249 38.9058 85.5249 38.9058Z" fill="white"/>
</g>
<path d="M128.73 106.632C116.154 106.633 73.6349 97.0582 62.0535 78.9227C61.2372 77.9585 57.6761 72.582 64.2858 58.0655C64.5074 57.5966 69.5692 46.9222 74.2971 39.6966C74.6987 38.9787 77.3583 34.4672 81.0143 33.9921C82.1632 33.8432 83.8936 34.049 85.6163 35.877C86.4022 36.7113 87.2304 37.7333 88.1072 38.8153C92.5211 44.262 99.1914 52.4932 114.675 54.6252C123.328 55.8162 128.853 55.3328 132.888 54.9799C137.697 54.5594 140.873 54.2811 144.392 57.5931C150.428 63.2733 148.62 74.0086 145.768 84.7636C145.506 85.7503 145.26 86.7461 145 87.8002C142.84 96.5597 140.392 106.488 129.024 106.631C128.928 106.632 128.829 106.632 128.73 106.632ZM81.6243 36.5828C81.5306 36.5828 81.4365 36.5888 81.3419 36.6012C79.2498 36.8731 77.1113 39.9656 76.5274 41.0276C76.511 41.0573 76.4934 41.0864 76.4749 41.1148C71.8389 48.189 66.6753 59.0792 66.6238 59.1884C60.425 72.8018 63.9946 77.1847 64.0315 77.2274C64.0921 77.2908 64.1236 77.3355 64.1706 77.4099C74.988 94.5278 116.872 104.002 128.728 104.002C128.818 104.002 128.906 104.002 128.992 104.001C138.369 103.883 140.372 95.7601 142.493 87.1604C142.744 86.1414 143.004 85.0878 143.272 84.0783C145.786 74.5983 147.677 64.2672 142.636 59.5238C139.955 57.0012 137.81 57.1887 133.11 57.6003C128.955 57.9641 123.265 58.462 114.328 57.2316C97.841 54.9615 90.7828 46.2518 86.1124 40.4884C85.2305 39.4002 84.4689 38.4602 83.7497 37.697C83.0455 36.9493 82.3472 36.5828 81.6243 36.5828Z" fill="#010270"/>
<path d="M70.0164 60.9476C70.5955 61.8891 71.8641 62.0416 72.6692 61.2915C77.2286 57.0436 84.0322 57.9177 84.4856 66.1335C84.5407 67.1341 85.4126 67.8827 86.3921 67.777L86.8322 67.7296C87.8395 67.6209 88.5157 66.795 88.4607 65.8518C87.7504 53.6735 76.3784 51.6446 70.1566 58.883C69.6634 59.4569 69.6188 60.3013 70.0164 60.9476Z" fill="#3FB1EA"/>
<path d="M115.461 78.8273L115.646 79.011C116.335 79.6929 117.442 79.6857 118.109 78.9822C122.119 74.7547 128.3 76.2347 128.664 83.7192C128.711 84.6792 129.467 85.444 130.411 85.444H131.401C132.385 85.444 133.187 84.6158 133.15 83.6152C132.701 71.6131 121.581 69.4395 115.381 76.3576C114.747 77.0642 114.787 78.1602 115.461 78.8273Z" fill="#3FB1EA"/>
<g opacity="0.3">
<path d="M166.388 35.6532C163.923 33.444 160.593 31.4056 157.447 32.5497C151.415 34.7414 146.628 44.122 136.739 46.0816C126.855 48.0366 108.612 43.6619 108.612 43.6619L104.389 41.3693C104.389 41.3693 127.139 46.5769 137.769 40.1463C148.399 33.7201 150.303 27.3597 155.147 27.0616C159.994 26.7679 159.442 24.7252 159.442 24.7252C159.442 24.7252 159.447 24.7252 159.451 24.7296C160.869 25.6545 161.963 26.4786 162.618 27.1449C165.6 30.1783 166.272 33.6764 166.388 35.6532Z" fill="#010270"/>
</g>
<path d="M113.928 207.451C113.928 207.451 93.9616 210.375 72.103 204.821C53.1142 199.995 51.4207 190.426 51.3045 188.002C51.2872 187.633 51.3045 187.432 51.3045 187.432L53.2435 179.69L59.4912 175.956C59.4912 175.956 91.8072 174.575 104.018 176.328C104.32 176.372 104.609 176.434 104.893 176.508C116.117 179.506 113.928 207.451 113.928 207.451Z" fill="#299ADF"/>
<path d="M100.596 209.771C92.8615 209.771 82.5716 209.062 71.7376 206.31C48.8865 200.506 49.7543 187.829 49.8026 187.292C49.8779 186.449 50.6106 185.828 51.4414 185.904C52.2664 185.981 52.8756 186.72 52.8072 187.558C52.776 188.026 52.3463 198.222 72.4681 203.333C90.7526 207.977 107.896 206.584 112.506 206.079C112.972 197.573 112.221 179.055 103.808 177.847C92.5736 176.235 63.5697 177.329 59.9307 177.474L54.0085 181.012C53.2909 181.441 52.3663 181.197 51.9445 180.466C51.5226 179.735 51.7632 178.795 52.4813 178.366L58.7291 174.634C58.9421 174.506 59.1825 174.435 59.4293 174.424C60.7546 174.368 92.0232 173.056 104.229 174.809C117.689 176.742 115.529 206.315 115.43 207.573C115.375 208.288 114.839 208.868 114.142 208.97C113.724 209.031 108.492 209.771 100.596 209.771Z" fill="#010270"/>
<path d="M104.018 169.898V176.328L86.7831 187.432C82.8233 180.826 79.2643 182.64 76.0111 190.719L74.8606 192.841C74.8606 192.841 72.857 189.343 69.94 185.968C66.9755 182.544 63.0718 179.248 59.3489 179.835C57.6081 180.111 56.2423 180.677 55.1694 181.383C51.6836 183.675 51.3044 187.432 51.3044 187.432L21.3497 179.086C19.5314 178.577 18.2731 176.898 18.2731 174.983V170.63L17.1916 170.2C16.9805 170.117 16.778 170.016 16.5841 169.898H16.5798C15.4983 169.266 14.7141 168.201 14.4297 166.948L6.02768 130.061C5.31672 126.948 8.07436 124.169 11.1251 124.919L61.693 137.337C64.8601 138.113 67.2256 140.809 67.6263 144.105L69.5739 160.162L104.018 169.898Z" fill="#B5B8C9"/>
<g opacity="0.6">
<path d="M67.6261 144.105L67.8243 145.753C66.9884 143.172 64.8901 141.168 62.2315 140.515L11.6635 128.097C9.03506 127.452 6.62646 129.425 6.46277 131.972L6.02759 130.061C5.31663 126.948 8.07427 124.169 11.125 124.919L61.6929 137.337C64.86 138.113 67.2255 140.809 67.6261 144.105Z" fill="white"/>
</g>
<g opacity="0.6">
<path d="M104.018 169.131V172.155L70.1124 162.573L69.7332 159.439L104.018 169.131Z" fill="white"/>
</g>
<path d="M74.8605 194.375C74.3246 194.375 73.8282 194.085 73.5578 193.613C71.4417 189.923 64.8103 180.524 59.5807 181.351C53.4039 182.328 52.81 187.536 52.8047 187.588C52.7594 188.037 52.5226 188.443 52.157 188.697C51.7909 188.952 51.3333 189.031 50.906 188.912L20.951 180.564C18.4866 179.877 16.7653 177.582 16.7653 174.982V171.677L16.6417 171.628C14.7863 170.889 13.4104 169.27 12.9606 167.296L4.55846 130.407C4.10562 128.424 4.68307 126.385 6.10359 124.952C7.52427 123.52 9.53272 122.95 11.479 123.427L62.0468 135.846C65.8039 136.766 68.6478 140.01 69.1229 143.917L70.9474 158.958L104.422 168.419C105.075 168.604 105.526 169.208 105.526 169.898V176.328C105.526 176.854 105.262 177.344 104.825 177.625L87.59 188.728C87.2484 188.949 86.8339 189.019 86.4403 188.926C86.0464 188.832 85.7062 188.582 85.4955 188.231C84.1778 186.032 82.9225 184.864 81.968 184.942C81.3463 184.992 79.6569 185.713 77.4066 191.301C77.3846 191.355 77.3597 191.409 77.3316 191.46L76.1812 193.582C75.919 194.066 75.4214 194.368 74.8786 194.375C74.8725 194.375 74.8664 194.375 74.8605 194.375ZM72.5999 186.778C73.449 187.877 74.1773 188.922 74.7546 189.797C76.8922 184.612 79.1133 182.095 81.7289 181.883C83.6604 181.722 85.4668 182.858 87.2243 185.331L102.51 175.484V171.064L71.3473 162.256L74.114 185.056C74.216 185.897 73.6285 186.663 72.8019 186.766C72.7341 186.775 72.6661 186.778 72.5999 186.778ZM10.1112 126.329C9.41077 126.329 8.74757 126.606 8.22711 127.131C7.54522 127.819 7.27882 128.76 7.49652 129.714L15.8987 166.603C16.1237 167.591 16.8122 168.401 17.7404 168.771L18.8226 169.201C19.4008 169.431 19.7814 169.998 19.7814 170.63V174.982C19.7814 176.203 20.59 177.281 21.7479 177.604L50.1933 185.532C51.1038 182.793 53.6453 179.185 59.1173 178.32C63.511 177.624 67.8445 181.195 71.0548 184.89L68.0778 160.355C68.0776 160.354 68.0774 160.352 68.077 160.35L66.1294 144.293C65.8078 141.648 63.8832 139.452 61.3399 138.829L10.7711 126.41C10.5496 126.356 10.3286 126.329 10.1112 126.329Z" fill="#010270"/>
<path d="M55.5045 182.71C55.3708 182.71 55.2347 182.692 55.0994 182.653L17.8689 172.108C17.0664 171.881 16.5971 171.035 16.8205 170.218C17.0438 169.402 17.8742 168.924 18.6776 169.152L55.9081 179.697C56.7106 179.925 57.18 180.771 56.9565 181.587C56.7708 182.265 56.1648 182.71 55.5045 182.71Z" fill="#010270"/>
<path d="M73.282 187.068C72.7289 187.068 72.1962 186.757 71.9319 186.22C71.5593 185.462 71.8614 184.54 72.6063 184.161L103.344 168.525C104.088 168.147 104.994 168.453 105.367 169.211C105.74 169.969 105.438 170.891 104.693 171.27L73.9553 186.906C73.7389 187.016 73.5087 187.068 73.282 187.068Z" fill="#010270"/>
<g opacity="0.6">
<path d="M30.2015 148.273L29.5581 143.694C29.5472 143.52 29.5875 143.347 29.6738 143.196L31.1988 140.685C31.3277 140.461 31.5813 140.343 31.8326 140.39L39.8541 142.026C40.0533 142.065 40.2227 142.197 40.3095 142.384L41.9261 145.249C42.0027 145.413 42.0478 145.591 42.0591 145.773L42.6854 150.988C42.7118 151.411 42.3307 151.741 41.9246 151.646L30.8751 149.078C30.5 148.991 30.226 148.664 30.2015 148.273Z" fill="white"/>
</g>
<path d="M29.5552 147.396L28.9118 142.818C28.9009 142.644 28.9412 142.47 29.0275 142.32L30.5525 139.809C30.6813 139.584 30.935 139.466 31.1862 139.514L39.2078 141.15C39.407 141.188 39.5764 141.321 39.6632 141.507L41.2798 144.372C41.3564 144.537 41.4015 144.714 41.4128 144.896L42.0391 150.112C42.0655 150.535 41.6844 150.864 41.2783 150.77L30.2288 148.202C29.8537 148.115 29.5797 147.787 29.5552 147.396Z" fill="#010270"/>
<path d="M72.0233 181.439C71.6162 181.439 71.2267 181.202 71.0446 180.802C70.7952 180.253 71.0307 179.601 71.5706 179.348L78.7589 175.968L70.5539 172.587C70.0025 172.359 69.7364 171.721 69.9599 171.16C70.1832 170.599 70.8117 170.329 71.3626 170.555L81.8718 174.887C82.2697 175.051 82.534 175.44 82.5443 175.876C82.5547 176.313 82.3091 176.714 81.9193 176.897L72.4744 181.337C72.3281 181.406 72.1745 181.439 72.0233 181.439Z" fill="#010270"/>
<path d="M77.142 174.979C76.7466 174.979 76.366 174.757 76.1775 174.373C75.9119 173.831 76.1278 173.173 76.6601 172.903L81.574 170.408L69.8906 166.555C69.3247 166.368 69.0146 165.75 69.1982 165.174C69.3818 164.598 69.9883 164.284 70.5551 164.47L84.744 169.149C85.16 169.287 85.4532 169.666 85.486 170.11C85.5186 170.554 85.2841 170.973 84.8929 171.172L77.6223 174.864C77.4679 174.942 77.3037 174.979 77.142 174.979Z" fill="#010270"/>
<g opacity="0.3">
<path d="M72.103 186.117L69.94 185.968C66.9755 182.544 63.0717 179.248 59.3489 179.835C57.6081 180.111 56.2423 180.677 55.1694 181.383L25.9816 172.813L16.5841 169.898H16.5798L15.257 166.685C49.5077 178.612 70.164 174.641 65.6699 141.26L67.1177 144.189L72.103 186.117Z" fill="#010270"/>
</g>
<g opacity="0.3">
<path d="M48.9002 179.287C44.7953 181.609 36.3555 181.481 18.2733 175.903L21.4317 178.305L50.516 186.117L53.2449 181.515" fill="#010270"/>
</g>
<g opacity="0.3">
<path d="M102.579 170.63C102.207 170.819 71.6931 186.088 71.6931 186.088C71.6931 186.088 74.7889 191.89 74.8607 191.671C74.9326 191.451 78.5232 184.072 78.5232 184.072L82.8457 183.52L87.1362 186.849L103.73 176.474" fill="#010270"/>
</g>
<g opacity="0.2">
<path d="M20.6696 151.921L16.6498 151.048C15.9463 150.895 15.3992 150.332 15.2571 149.615L12.7193 135.527C12.4263 134.063 13.7318 132.787 15.158 133.138L18.842 134.045C19.6177 134.234 20.2079 134.874 20.3501 135.671L22.5487 150.074C22.7443 151.194 21.7627 152.159 20.6696 151.921Z" fill="white"/>
</g>
<g opacity="0.2">
<path d="M22.3149 164.348L19.204 163.235C18.5361 162.994 18.0405 162.415 17.9027 161.709L17.1316 157.814C16.9569 156.931 17.7311 156.156 18.5959 156.349L22.63 157.245C23.5657 157.453 24.2858 158.215 24.454 159.174L24.9605 162.064C25.2277 163.603 23.7627 164.87 22.3149 164.348Z" fill="white"/>
</g>
<path d="M88.2575 187.11L87.7113 191.83L85.3087 187.754L88.2575 187.11Z" fill="#010270"/>
<g opacity="0.3">
<path d="M113.928 207.451C113.928 207.451 93.9616 210.375 72.103 204.821C53.1141 199.995 51.4207 190.426 51.3045 188.002C52.3256 185.363 53.8553 183.671 53.8553 183.671C52.8858 186.52 54.0707 190.355 60.6416 195.944C67.2125 201.533 100.606 205.698 107.392 199.451C114.178 193.205 105.669 181.176 105.669 181.176L87.2484 189.632L86.1712 186.739L104.893 176.508C116.117 179.506 113.928 207.451 113.928 207.451Z" fill="#010270"/>
</g>
<path opacity="0.4" d="M106.612 195.506C106.888 197.724 103.652 199.968 99.3827 200.519C95.1137 201.07 91.4288 199.718 91.1524 197.5C90.8759 195.282 95.2953 192.38 99.5644 191.83C103.833 191.279 106.336 193.288 106.612 195.506Z" fill="url(#paint0_linear_151_2259)"/>
<g opacity="0.3">
<path d="M113.281 187.122L117.805 184.403L111.342 180.712L111.844 182.684" fill="#010270"/>
</g>
<g opacity="0.3">
<path d="M120.673 184.905C120.673 184.905 123.765 193.132 114.573 195.25V199.926C120.573 199.507 125.498 196.828 128.721 190.575" fill="#010270"/>
</g>
<path d="M141.839 140.68C132.018 140.68 117.352 138.497 102.057 134.605C91.2247 131.85 64.8616 124.231 54.0446 113.038C53.5442 112.52 53.551 111.688 54.0602 111.178C54.5688 110.669 55.3875 110.676 55.8881 111.194C63.0732 118.629 80.567 126.427 102.684 132.054C122.266 137.036 141.368 139.24 149.138 137.412C149.833 137.249 150.527 137.69 150.688 138.397C150.849 139.105 150.415 139.811 149.72 139.975C147.699 140.45 145.023 140.68 141.839 140.68Z" fill="#010270"/>
<path d="M106.74 177.29L134.322 192.364C134.322 192.364 145.238 178.348 147.823 159.439C150.408 140.53 137.194 137.754 128.433 138.923C119.672 140.092 114.071 153.534 113.065 158.064C112.06 162.593 106.74 177.29 106.74 177.29Z" fill="white"/>
<g opacity="0.3">
<path d="M147.821 159.439C145.236 178.349 134.322 192.363 134.322 192.363L130.664 190.364C131.849 188.777 141.617 175.346 144.043 157.598C145.357 147.98 142.582 142.536 138.385 139.665C144.499 141.664 149.502 147.139 147.821 159.439Z" fill="#010270"/>
</g>
<g opacity="0.6">
<path d="M144.37 143.413C140.303 140.559 134.861 140.169 130.517 140.747C121.753 141.918 116.152 155.362 115.148 159.89C114.265 163.884 110.02 175.78 109.029 178.538L106.741 177.288C106.741 177.288 112.059 162.595 113.067 158.062C114.071 153.534 119.672 140.09 128.432 138.924C133.577 138.236 140.26 138.911 144.37 143.413Z" fill="white"/>
</g>
<path d="M134.321 193.898C134.079 193.898 133.834 193.839 133.608 193.716L106.026 178.642C105.364 178.28 105.065 177.477 105.324 176.76C105.377 176.614 110.622 162.106 111.594 157.726C112.416 154.024 117.96 138.772 128.237 137.402C131.538 136.961 139.795 136.531 145.166 142.037C148.983 145.951 150.379 151.877 149.317 159.65C146.705 178.753 135.96 192.731 135.504 193.317C135.21 193.695 134.77 193.898 134.321 193.898ZM108.605 176.568L133.885 190.384C136.354 186.859 144.224 174.627 146.329 159.228C147.255 152.453 146.143 147.396 143.024 144.199C138.603 139.666 131.484 140.063 128.63 140.444C120.778 141.491 115.479 154.155 114.536 158.402C113.684 162.241 109.922 172.886 108.605 176.568Z" fill="#010270"/>
<path d="M116.719 182.744L123.981 163.689C123.981 163.689 127.536 153.644 134.645 155.288C141.755 156.931 137.877 166.904 135.184 173.15C132.491 179.397 127.446 188.606 127.446 188.606L116.719 182.744Z" fill="#28328E"/>
<g opacity="0.3">
<path d="M138.583 159.496C138.118 159.224 137.571 159.014 136.942 158.869C129.832 157.225 126.278 167.272 126.278 167.272L119.75 184.403L116.721 182.746L123.981 163.686C123.981 163.686 127.536 153.644 134.645 155.288C137.11 155.857 138.252 157.427 138.583 159.496Z" fill="#010270"/>
</g>
<path d="M127.445 189.922C127.238 189.922 127.029 189.871 126.834 189.765L116.107 183.902C115.532 183.588 115.278 182.888 115.514 182.269L122.776 163.213C122.926 162.788 126.803 152.125 134.931 154.006C136.953 154.473 138.395 155.551 139.218 157.211C141.215 161.24 139.028 167.507 136.368 173.679C133.681 179.91 128.626 189.154 128.575 189.247C128.339 189.678 127.899 189.922 127.445 189.922ZM118.337 182.136L126.931 186.832C128.354 184.185 131.915 177.459 134 172.622C135.387 169.406 138.633 161.874 136.909 158.395C136.444 157.456 135.61 156.859 134.359 156.57C128.458 155.207 125.228 164.046 125.197 164.136L118.337 182.136Z" fill="#010270"/>
<path d="M110.83 166.828C110.694 166.828 110.555 166.806 110.419 166.759L95.4192 161.64C94.8924 161.46 94.5376 160.958 94.5376 160.393V149.54C64.2494 140.134 63.9778 139.922 63.7389 139.734C63.1734 139.291 63.0684 138.465 63.5043 137.89C63.8854 137.387 64.5542 137.241 65.0949 137.511C66.3882 138.014 84.3466 143.626 96.2076 147.308C96.7513 147.477 97.1229 147.988 97.1229 148.566V159.447L111.241 164.265C111.918 164.496 112.282 165.242 112.055 165.93C111.874 166.48 111.37 166.827 110.83 166.828ZM65.3124 137.648C65.3132 137.648 65.3138 137.649 65.3143 137.649C65.3138 137.649 65.3131 137.648 65.3124 137.648Z" fill="#010270"/>
<path d="M93.9452 226.523C86.7316 226.523 80.3544 225.85 75.2624 225.031C63.3511 223.114 55.8951 220.085 55.5834 219.956C54.9218 219.685 54.6021 218.918 54.8691 218.245C55.1363 217.572 55.8894 217.246 56.5514 217.517C56.8475 217.639 86.5692 229.559 120.989 220.465C121.679 220.283 122.386 220.704 122.565 221.407C122.745 222.11 122.33 222.828 121.639 223.011C111.752 225.623 102.289 226.523 93.9452 226.523Z" fill="#010270"/>
<g opacity="0.3">
<path d="M124.063 213.378C123.132 216.63 120.469 225.366 117.806 228.786C115.212 232.113 92.1733 235.62 73.2836 231.81C102.941 235.343 101.153 215.653 101.153 215.653L124.063 213.378Z" fill="#010270"/>
</g>
<path d="M52.884 121.123C52.7751 121.123 52.6641 121.109 52.5538 121.079L33.9208 116.083C33.2305 115.898 32.8183 115.178 33.0004 114.476C33.1821 113.774 33.8901 113.354 34.5797 113.54L53.2127 118.536C53.903 118.721 54.3152 119.44 54.1331 120.143C53.9805 120.733 53.457 121.123 52.884 121.123Z" fill="#010270"/>
<g opacity="0.3">
<path d="M53.7476 116.603C51.0561 127.995 41.8776 130.777 24.9602 123.288L22.5736 127.467L49.396 134.317L50.8392 127.562" fill="#010270"/>
</g>
<path d="M34.4431 71.8261C34.2205 71.8261 33.9944 71.7759 33.781 71.6695C33.0329 71.2969 32.7235 70.3777 33.0898 69.6168L38.4581 58.4633C38.6856 57.9105 39.2213 57.5225 39.8474 57.5225H39.8516C40.3721 57.5225 40.8557 57.7955 41.1313 58.2447C41.4067 58.6938 41.4349 59.2559 41.2061 59.7314L35.7986 70.9662C35.5368 71.5101 35.0007 71.8261 34.4431 71.8261Z" fill="#010270"/>
<path d="M34.8319 71.3468L30.4801 70.9369L34.0565 68.3815L34.8319 71.3468Z" fill="#010270"/>
<path d="M50.5872 102.014C49.8752 102.014 49.1582 101.823 48.5076 101.431L35.2218 93.4421C33.3883 92.3394 32.6797 89.9482 33.6087 87.9983L53.6891 45.8568C54.6176 43.9083 56.8816 43.0381 58.8447 43.8768L64.3831 46.242C65.0414 46.5231 65.3508 47.2937 65.0745 47.9636C64.7983 48.633 64.0405 48.9477 63.3823 48.667L57.8438 46.3018C57.1478 46.0043 56.3448 46.3131 56.0155 47.0042L35.9352 89.1457C35.5882 89.8736 35.8527 90.7662 36.5373 91.1779L49.8231 99.1672C50.3939 99.5101 51.1046 99.4341 51.592 98.9767L52.0071 98.5874C52.5324 98.0956 53.3501 98.1294 53.8338 98.663C54.3176 99.1971 54.2843 100.029 53.7595 100.521L53.3444 100.911C52.5675 101.639 51.5825 102.014 50.5872 102.014Z" fill="#010270"/>
<path d="M37.1472 73.8797C36.9842 73.8797 36.8189 73.8419 36.6635 73.7624C36.1322 73.4902 35.9183 72.8314 36.1857 72.2907L50.8867 42.5773C53.7853 36.8344 58.4901 37.5149 58.6891 37.5467C59.2769 37.6405 59.6784 38.2014 59.5863 38.7993C59.4945 39.3941 58.9481 39.8025 58.3643 39.7133C58.2127 39.693 54.9615 39.3025 52.8072 43.5706L38.1102 73.2763C37.9208 73.6588 37.5412 73.8796 37.1472 73.8797Z" fill="#010270"/>
<path d="M30.7238 97.06C30.5534 97.06 30.3805 97.0189 30.2194 96.9317C26.7299 95.0456 27.0961 91.6872 27.7773 90.1747L30.3153 84.4552C30.5602 83.9038 31.1988 83.6582 31.7403 83.9075C32.2826 84.1564 32.5237 84.8055 32.2789 85.3571L29.7383 91.0822C29.5572 91.5012 28.7741 93.6687 31.2301 94.9964C31.7555 95.2802 31.9551 95.9437 31.6759 96.4782C31.4824 96.8487 31.1095 97.06 30.7238 97.06Z" fill="#010270"/>
<g opacity="0.3">
<path d="M32.4621 96.9031C37.9117 105.413 34.0247 111.627 20.8013 115.543H25.0457C25.0457 115.543 22.9911 117.662 24.6889 123.653C24.6889 123.653 35.5275 111.783 42.537 108.494L42.0406 102.081" fill="#010270"/>
</g>
<g opacity="0.3">
<path d="M47.1407 88.9508C47.1407 88.9508 48.6243 102.515 29.8574 94.3449L30.48 96.5488L47.909 105.255L51.8489 105.318L54.9664 102.357L49.9773 93.9188" fill="#010270"/>
</g>
<path d="M34.516 29.0971C36.4744 25.8375 37.4399 21.9246 37.0268 17.831C36.024 7.89497 27.2936 0.667303 17.527 1.68747C7.76034 2.70763 0.655846 11.5894 1.65862 21.5253C2.6614 31.4613 11.3918 38.689 21.1584 37.6688C23.875 37.3851 26.3845 36.4915 28.572 35.1377L36.7988 37.0147L34.516 29.0971Z" fill="white"/>
<g opacity="0.5">
<path d="M17.8763 5.14758C26.9997 4.19461 35.2168 10.4397 37.0773 19.3655C37.0795 18.728 37.0525 18.0847 36.9871 17.4361C35.9843 7.50012 27.254 0.272459 17.4873 1.29262C7.72064 2.31279 0.616143 11.1945 1.61892 21.1304C1.68466 21.7818 1.7855 22.4207 1.91574 23.0472C1.94997 13.9192 8.74984 6.10094 17.8763 5.14758Z" fill="white"/>
</g>
<path d="M9.55413 21.3062C10.9569 21.3062 12.094 20.1494 12.094 18.7223C12.094 17.2953 10.9569 16.1384 9.55413 16.1384C8.15141 16.1384 7.01428 17.2953 7.01428 18.7223C7.01428 20.1494 8.15141 21.3062 9.55413 21.3062Z" fill="#000072"/>
<path d="M19.4427 21.3062C20.8454 21.3062 21.9825 20.1494 21.9825 18.7223C21.9825 17.2953 20.8454 16.1384 19.4427 16.1384C18.04 16.1384 16.9028 17.2953 16.9028 18.7223C16.9028 20.1494 18.04 21.3062 19.4427 21.3062Z" fill="#000072"/>
<path d="M29.3313 21.3062C30.734 21.3062 31.8711 20.1494 31.8711 18.7223C31.8711 17.2953 30.734 16.1384 29.3313 16.1384C27.9286 16.1384 26.7914 17.2953 26.7914 18.7223C26.7914 20.1494 27.9286 21.3062 29.3313 21.3062Z" fill="#000072"/>
<path d="M19.3066 39.3565C14.8774 39.3565 10.6175 37.8225 7.13514 34.9395C3.12832 31.6221 0.63084 26.916 0.103342 21.6879C-0.424312 16.4597 1.08071 11.3354 4.34146 7.25884C7.60229 3.18257 12.2282 0.641781 17.3673 0.105137C22.5078 -0.431665 27.5433 1.09937 31.5504 4.41673C35.5574 7.73409 38.0546 12.4402 38.5823 17.6684C38.9942 21.7492 38.1736 25.7582 36.2066 29.3091L38.2993 36.567C38.4552 37.1076 38.3183 37.6916 37.9398 38.1026C37.5613 38.5135 36.9983 38.6899 36.4567 38.5671L28.8308 36.8272C26.5141 38.1573 23.9901 38.972 21.3181 39.2512C20.6454 39.3215 19.974 39.3565 19.3066 39.3565ZM19.3732 3.18177C18.8137 3.18177 18.2512 3.21112 17.6869 3.26989C13.3787 3.71992 9.50067 5.84964 6.76719 9.26696C4.0337 12.6843 2.77179 16.98 3.21416 21.3629C3.65653 25.7458 5.74995 29.6908 9.10904 32.4719C12.468 35.2528 16.6906 36.535 20.9986 36.0865C23.4189 35.8336 25.6936 35.0572 27.7594 33.7788C28.1054 33.5645 28.5194 33.4955 28.9142 33.5856L34.5514 34.8719L33.0157 29.5448C32.8916 29.1142 32.952 28.6503 33.1819 28.2675C35.0449 25.1666 35.8367 21.6137 35.4715 17.9935C35.0291 13.6107 32.9356 9.66538 29.5764 6.88451C26.6574 4.46787 23.0859 3.18177 19.3732 3.18177Z" fill="#000072"/>
<g opacity="0.3">
<path d="M34.6159 28.9235C29.7467 33.1134 23.0387 34.9482 16.3773 33.2615C8.98985 31.391 3.54672 25.6681 1.589 18.7222C1.54218 19.6432 1.56321 20.5793 1.65865 21.5253C2.66143 31.4613 11.3918 38.689 21.1585 37.6688C23.8751 37.3851 26.3846 36.4915 28.5722 35.1377L36.7989 37.0147L34.5161 29.0971C34.5504 29.04 34.5821 28.981 34.6159 28.9235Z" fill="#000072"/>
</g>
<path opacity="0.68" d="M81.4675 92.2594C97.4321 92.2594 110.374 79.0931 110.374 62.8517C110.374 46.6104 97.4321 33.4441 81.4675 33.4441C65.5029 33.4441 52.561 46.6104 52.561 62.8517C52.561 79.0931 65.5029 92.2594 81.4675 92.2594Z" fill="url(#paint1_radial_151_2259)"/>
<path opacity="0.68" d="M125.556 107.529C141.52 107.529 154.462 94.3625 154.462 78.1211C154.462 61.8797 141.52 48.7135 125.556 48.7135C109.591 48.7135 96.6493 61.8797 96.6493 78.1211C96.6493 94.3625 109.591 107.529 125.556 107.529Z" fill="url(#paint2_radial_151_2259)"/>

<defs>
<linearGradient id="paint0_linear_151_2259" x1="94.7091" y1="188.822" x2="99.9057" y2="197.952" gradientUnits="userSpaceOnUse">
<stop stop-color="white"/>
<stop offset="1" stop-color="#F1F2F2"/>
</linearGradient>
<radialGradient id="paint1_radial_151_2259" cx="0" cy="0" r="1" gradientUnits="userSpaceOnUse" gradientTransform="translate(81.07 62.634) scale(23.7236 24.1348)">
<stop stop-color="#299ADF"/>
<stop offset="1" stop-color="#299ADF"/>
</radialGradient>
<radialGradient id="paint2_radial_151_2259" cx="0" cy="0" r="1" gradientUnits="userSpaceOnUse" gradientTransform="translate(125.158 77.9033) scale(23.7236 24.1348)">
<stop stop-color="#299ADF"/>
<stop offset="1" stop-color="#299ADF"/>
</radialGradient>
</defs>
</svg>
